<svg height="512" viewBox="0 0 58 54" width="512" xmlns="http://www.w3.org/2000/svg"><g id="Page-1" fill="none" fill-rule="evenodd"><g id="138---Movie-Files" fill-rule="nonzero"><path id="Shape" d="m58 19v29c0 3.3137085-2.6862915 6-6 6h-46c-3.3137085 0-6-2.6862915-6-6v-44c0-2.209139 1.790861-4 4-4h22c2.209139 0 4 1.790861 4 4v2h18c2.209139 0 4 1.790861 4 4v3c3.3116533.0049563 5.9950437 2.6883467 6 6z" fill="#3f5c6c"/><path id="Shape" d="m52 10v3h-52v-9c0-2.209139 1.790861-4 4-4h22c2.209139 0 4 1.790861 4 4v2h18c2.209139 0 4 1.790861 4 4z" fill="#35495e"/><path id="Shape" d="m18 13h-4c-.5522847 0-1-.4477153-1-1s.4477153-1 1-1h4c.5522847 0 1 .4477153 1 1s-.4477153 1-1 1z" fill="#2c3e50"/><path id="Shape" d="m52 11v2h-29c-.5522847 0-1-.4477153-1-1s.4477153-1 1-1z" fill="#2c3e50"/><path id="Shape" d="m24 25.832v14.336c-.0288108.3469037.142147.6800047.4407884.8588497.2986415.1788451.6729944.17231.9652116-.0168497l10.175-7.169c.2640561-.1989565.4193376-.5103804.4193376-.841s-.1552815-.6420435-.4193376-.841l-10.175-7.169c-.2922172-.1891597-.6665701-.1956948-.9652116-.0168497-.2986414.178845-.4695992.511946-.4407884.8588497z" fill="#e64c3c"/><g fill="#ecf0f1"><rect id="Rectangle-path" height="5" rx="1" width="5" x="4" y="17"/><rect id="Rectangle-path" height="5" rx="1" width="5" x="4" y="26"/><rect id="Rectangle-path" height="5" rx="1" width="5" x="4" y="35"/><rect id="Rectangle-path" height="5" rx="1" width="5" x="4" y="44"/><rect id="Rectangle-path" height="5" rx="1" width="5" x="49" y="17"/><rect id="Rectangle-path" height="5" rx="1" width="5" x="49" y="26"/><rect id="Rectangle-path" height="5" rx="1" width="5" x="49" y="35"/><rect id="Rectangle-path" height="5" rx="1" width="5" x="49" y="44"/></g><path id="Shape" d="m13 49c-.5522847 0-1-.4477153-1-1v-30c0-.5522847.4477153-1 1-1s1 .4477153 1 1v30c0 .5522847-.4477153 1-1 1z" fill="#35495e"/><path id="Shape" d="m45 49c-.5522847 0-1-.4477153-1-1v-30c0-.5522847.4477153-1 1-1s1 .4477153 1 1v30c0 .5522847-.4477153 1-1 1z" fill="#35495e"/></g></g></svg>